<?xml version="1.0" standalone="no"?>
<!DOCTYPE svg PUBLIC "-//W3C//DTD SVG 20010904//EN"
 "http://www.w3.org/TR/2001/REC-SVG-20010904/DTD/svg10.dtd">
<svg version="1.0" xmlns="http://www.w3.org/2000/svg"
 width="349.000000pt" height="354.000000pt" viewBox="0 0 349.000000 354.000000"
 preserveAspectRatio="xMidYMid meet">
<metadata>
Created by potrace 1.16, written by Peter Selinger 2001-2019
</metadata>
<g transform="translate(0.000000,354.000000) scale(0.100000,-0.100000)"
fill="#000000" stroke="none">
<path d="M1969 2818 c-1 -13 -1 -41 0 -64 3 -49 -17 -74 -61 -74 -20 0 -29 -4
-25 -13 5 -14 -22 -52 -38 -53 -5 0 -33 -11 -62 -25 -49 -23 -51 -26 -55 -69
-5 -54 -5 -56 19 -36 10 9 61 47 113 86 70 51 96 66 98 54 8 -36 -13 -62 -100
-124 -105 -75 -132 -89 -170 -90 -25 0 -28 4 -34 49 l-6 50 -71 -50 c-51 -36
-79 -49 -105 -49 -26 0 -33 3 -28 15 3 8 2 15 -2 15 -8 0 -32 123 -32 165 0
23 4 25 43 25 23 0 49 5 57 11 11 7 -2 9 -48 6 -59 -3 -63 -2 -68 20 -4 13 -4
35 -2 48 3 14 1 25 -3 25 -5 0 -9 13 -9 29 0 17 -4 33 -10 36 -23 14 -330
-129 -330 -154 0 -5 16 -29 35 -54 19 -25 35 -53 35 -62 0 -22 -41 -35 -108
-35 -52 0 -59 -3 -74 -28 -46 -77 -104 -105 -130 -62 -7 11 -16 20 -19 20 -7
0 -89 -106 -89 -115 0 -3 9 -5 20 -5 11 0 34 -13 52 -29 32 -28 32 -29 40
-152 4 -68 10 -197 14 -286 l7 -161 -32 -32 c-28 -28 -37 -32 -68 -27 -69 12
-82 38 -87 180 -1 43 -7 82 -12 87 -5 5 -37 6 -71 3 -60 -5 -63 -7 -64 -32 0
-14 -4 -35 -9 -46 -6 -17 -9 -14 -15 19 -6 28 -4 40 6 47 10 6 5 9 -15 9 l-29
0 6 -97 c6 -107 -4 -149 -44 -177 -23 -15 -23 -16 -3 -16 12 0 33 9 47 20 14
11 27 20 30 20 2 0 7 -55 10 -122 3 -68 8 -130 11 -138 5 -11 25 -15 86 -16
121 -2 166 -42 141 -125 -12 -39 -11 -43 13 -68 32 -33 37 -88 12 -126 -21
-32 -73 -65 -106 -66 -14 -1 -18 -3 -10 -6 8 -2 38 -39 67 -81 28 -42 68 -94
87 -116 30 -32 40 -37 63 -32 65 16 68 15 68 -34 0 -25 7 -55 15 -68 18 -28
112 -95 201 -145 110 -61 313 -135 324 -117 3 5 -14 33 -38 62 -66 81 -76 100
-67 124 7 19 19 22 108 28 l100 7 54 77 c32 46 62 78 74 80 11 2 35 -7 54 -20
26 -18 38 -38 57 -93 13 -38 29 -75 36 -81 6 -7 51 -24 99 -38 120 -36 127
-61 35 -130 l-52 -38 59 6 c75 8 217 55 321 106 119 59 116 55 75 89 l-35 29
44 20 c36 17 48 28 60 63 9 23 22 44 29 47 7 2 28 -13 46 -33 44 -48 57 -43
142 48 80 86 141 170 194 267 58 105 59 119 11 224 -23 48 -41 96 -41 105 0
25 20 41 53 41 25 0 31 -7 59 -67 34 -76 36 -79 44 -71 3 4 1 15 -4 25 -6 12
-4 46 9 107 23 115 26 260 6 301 -8 17 -18 74 -22 128 l-7 98 -59 77 c-33 42
-81 107 -106 144 -51 75 -52 101 -7 143 l25 23 -60 78 c-33 44 -78 97 -100
119 -38 36 -41 37 -41 16 0 -12 -5 -31 -11 -43 -16 -30 -62 -17 -117 33 -43
40 -46 41 -91 33 -77 -13 -129 -10 -148 9 -16 16 -15 21 16 90 l32 74 -21 36
c-17 29 -33 40 -93 61 -40 14 -92 30 -117 36 -25 6 -53 13 -62 16 -13 4 -18
-1 -19 -18z m6 -542 c58 -27 88 -57 110 -108 47 -114 -26 -237 -158 -268 -29
-7 -58 -17 -64 -22 -7 -6 -20 -8 -28 -4 -9 3 -14 2 -10 -3 3 -5 0 -11 -7 -13
-9 -3 -8 -23 5 -81 9 -43 17 -87 17 -98 0 -32 -53 -79 -90 -79 -69 0 -113 97
-115 255 -1 72 -6 105 -29 164 -20 53 -27 87 -24 122 1 27 0 49 -4 49 -17 0
-7 30 15 44 31 20 221 64 282 65 33 1 67 -7 100 -23z m586 -6 c115 -34 196
-130 187 -221 -2 -25 -8 -34 -22 -34 -11 0 -23 -11 -28 -25 -15 -42 -57 -89
-97 -110 -22 -11 -71 -22 -117 -26 -43 -4 -82 -12 -86 -18 -4 -6 -8 -41 -8
-77 0 -75 -8 -92 -26 -52 -12 27 -12 27 -13 5 -3 -85 -101 -123 -162 -63 -28
28 -29 33 -29 123 0 51 7 176 14 276 18 252 16 250 210 244 72 -2 134 -10 177
-22z m149 -575 c7 -8 15 -36 18 -61 4 -42 9 -48 58 -79 30 -19 54 -39 54 -44
0 -5 -24 -22 -52 -38 -51 -27 -53 -30 -64 -83 -13 -69 -29 -73 -85 -23 -39 35
-47 38 -102 38 -78 0 -91 17 -59 73 27 49 27 69 2 107 -23 34 -26 61 -8 67 7
3 34 0 61 -4 47 -9 50 -8 90 26 46 39 68 44 87 21z m-1617 -125 c24 -19 27
-20 60 -4 40 19 71 13 63 -13 -18 -61 -17 -70 9 -102 35 -40 27 -58 -29 -66
-38 -6 -49 -13 -67 -41 -29 -47 -56 -45 -76 6 -14 35 -22 42 -60 51 -51 13
-54 30 -13 61 26 19 30 28 30 68 0 26 3 50 7 53 13 13 51 7 76 -13z m725 -216
c39 -14 62 -38 62 -63 0 -14 -59 -41 -90 -41 -23 0 -29 -5 -34 -31 -3 -17 -6
-48 -6 -68 0 -20 -7 -49 -15 -65 -8 -15 -15 -36 -15 -46 0 -9 -5 -31 -11 -49
-9 -26 -16 -31 -44 -31 -52 0 -56 13 -53 163 l3 135 -40 7 c-44 7 -75 29 -75
55 0 21 28 47 55 52 46 8 223 -4 263 -18z m-399 -82 c20 -10 43 -35 54 -56 17
-32 18 -43 8 -76 -6 -21 -24 -49 -39 -62 l-28 -23 29 -63 c34 -73 28 -106 -19
-118 -43 -11 -75 14 -116 91 -20 38 -41 71 -46 73 -5 1 -12 -23 -15 -53 -7
-68 -19 -85 -62 -85 -46 0 -65 9 -75 34 -10 26 15 311 30 345 11 24 11 24 128
17 82 -4 127 -12 151 -24z m777 -8 c64 -31 110 -152 76 -204 -8 -14 -16 -43
-16 -65 -1 -57 -39 -80 -145 -88 -95 -7 -109 -4 -117 32 -4 14 -12 33 -19 41
-18 22 -26 62 -14 76 14 17 1 120 -17 135 -19 16 -18 54 2 70 36 30 189 32
250 3z m-1238 -2 c21 -14 32 -69 21 -104 -6 -18 -12 -83 -13 -145 -2 -73 -7
-118 -16 -128 -19 -23 -57 -18 -76 11 -15 22 -16 36 -6 119 7 52 12 116 12
144 0 77 13 100 60 110 3 0 11 -3 18 -7z"/>
<path d="M1740 2134 c-13 -33 -13 -96 0 -130 10 -26 12 -27 71 -21 88 10 150
50 149 97 -1 22 -66 60 -123 71 -75 14 -86 12 -97 -17z"/>
<path d="M2370 2075 l0 -53 38 -7 c46 -7 87 7 102 35 25 46 -19 79 -102 78
l-38 0 0 -53z"/>
<path d="M2047 1188 c-14 -11 -15 -22 -6 -78 20 -136 18 -130 51 -130 29 0 86
25 100 45 4 6 8 33 8 61 0 45 -4 53 -36 82 -39 34 -87 42 -117 20z"/>
<path d="M3279 2272 c17 -31 13 -81 -7 -110 -10 -15 -45 -76 -76 -136 l-58
-109 1 -127 c2 -123 1 -127 -24 -154 -30 -33 -28 -40 8 -27 51 20 60 49 53
174 l-7 112 75 140 c88 164 96 187 69 223 -25 33 -50 43 -34 14z"/>
</g>
</svg>
